<svg width="48" height="48" viewBox="0 0 48 48" fill="none" xmlns="http://www.w3.org/2000/svg">
<path d="M17.3477 17.6133H21.8008V20.2148H17.3477V25.2891H14.582V20.2148H10.1055V17.6133H14.582V12.8672H17.3477V17.6133Z" fill="currentColor"/>
<path fill-rule="evenodd" clip-rule="evenodd" d="M35 29.3211C35 36.033 30.684 41 24 41C17.316 41 13 36.033 13 29.3211C13 28.9191 13.0573 28.4464 13.1729 27.908C12.1538 27.7656 11.1866 27.4615 10.2979 27.0225C10.1054 27.8458 10 28.6177 10 29.3211C10 37.428 15.4089 44 24 44C32.5911 44 38 37.428 38 29.3211C38 23.0873 29.722 11.4685 25.8968 6.43225C24.7474 4.91897 24 4 24 4C24 4 23.2526 4.91897 22.1032 6.43225C21.3137 7.47176 20.3344 8.7917 19.2774 10.2868C20.1513 10.7963 20.9365 11.4411 21.6042 12.1927C22.473 10.9595 23.2931 9.84129 24 8.89892C25.2602 10.5788 26.8797 12.8173 28.4942 15.27C30.2057 17.8699 31.8743 20.6543 33.1044 23.2353C34.3802 25.9122 35 27.9988 35 29.3211Z" fill="currentColor"/>
</svg>
