<svg width="49" height="48" viewBox="0 0 49 48" fill="none" xmlns="http://www.w3.org/2000/svg">
<path d="M40.5 36.6602C40.5 43.238 31.3689 44 24.5 44C23.8077 44 23.1254 43.99 22.4552 43.97C21.6582 43.95 21.0303 43.288 21.0545 42.494C21.0766 41.7021 21.7649 41.1061 22.5377 41.1001C23.1818 41.1181 23.8358 41.1261 24.5 41.1261C33.1984 41.1261 37.6099 39.6241 37.6099 36.6602C37.6099 33.6683 33.1984 32.1503 24.5 32.1503C15.8016 32.1503 11.3901 33.6543 11.3901 36.6202C11.3901 37.5902 11.7362 38.9961 14.741 40.0081C15.4977 40.2621 15.9023 41.0761 15.6467 41.8261C15.3891 42.576 14.5719 42.986 13.8132 42.726C9.42176 41.2481 8.5 38.5901 8.5 36.6202C8.5 30.1746 17.2622 29.3119 24.0767 29.2794L25.2617 29.2798C29.8063 29.3029 40.5 29.7042 40.5 36.6602ZM24.5 4C30.4411 4 35.2733 8.80388 35.2733 14.7077C35.2733 20.6096 30.4411 25.4135 24.5 25.4135C18.5589 25.4135 13.7247 20.6096 13.7247 14.7077C13.7247 8.80388 18.5589 4 24.5 4ZM24.5 6.87393C20.1528 6.87393 16.6167 10.3878 16.6167 14.7077C16.6167 19.0256 20.1528 22.5395 24.5 22.5395C28.8472 22.5395 32.3833 19.0256 32.3833 14.7077C32.3833 10.3878 28.8472 6.87393 24.5 6.87393Z" fill="currentColor"/>
</svg>
